<?xml version="1.0" encoding="utf-8"?>
<!-- Generator: Adobe Illustrator 21.1.0, SVG Export Plug-In . SVG Version: 6.00 Build 0)  -->
<svg version="1.1" id="Layer_1" xmlns="http://www.w3.org/2000/svg" xmlns:xlink="http://www.w3.org/1999/xlink" x="0px" y="0px"
	 viewBox="0 0 250 250" style="enable-background:new 0 0 250 250;" xml:space="preserve">
<style type="text/css">
	.st0{fill:#676767;}
	.st1{fill:#8F548E;}
	.st2{fill:#53245E;}
</style>
<g>
	<path class="st0" d="M54.2,16.5v15.6H42v201.4h134.8v-13.3H208v-68.1v-8.7V16.5H54.2z M171.7,228.5H47V37.1h7.2v183.1h117.5V228.5z
		 M203,152.1v63.1H59.2V21.5H203v121.9V152.1z"/>
	<rect x="74.3" y="37.1" class="st1" width="32.6" height="5"/>
	<rect x="74.3" y="60.1" class="st1" width="114.3" height="5"/>
	<rect x="74.3" y="85.5" class="st1" width="114.3" height="5"/>
	<rect x="74.3" y="111.3" class="st1" width="97.2" height="5"/>
	<rect x="74.3" y="136.3" class="st1" width="74.8" height="5"/>
	<rect x="74.3" y="163.4" class="st1" width="58" height="5"/>
	<rect x="111.7" y="37.1" class="st1" width="11.2" height="5"/>
	<rect x="158.3" y="177" class="st2" width="33" height="23.4"/>
</g>
</svg>
